<svg xmlns="http://www.w3.org/2000/svg" xmlns:xlink="http://www.w3.org/1999/xlink" preserveAspectRatio="xMidYMid" width="384" height="384" viewBox="0 0 384 384">
  <defs>
    <style>

      .cls-2 {
        fill: #f8bb12;
      }
    </style>
  </defs>
  <path d="M191.999,-0.001 C85.961,-0.001 -0.001,85.960 -0.001,192.000 C-0.001,298.039 85.961,384.001 191.999,384.001 C298.039,384.001 384.001,298.039 384.001,192.000 C384.001,85.960 298.039,-0.001 191.999,-0.001 ZM70.672,192.488 C69.894,192.232 69.003,190.978 69.003,190.978 C69.003,190.978 59.555,178.270 59.555,178.270 C59.555,178.270 59.181,177.756 59.281,177.514 C59.418,177.195 59.663,177.234 60.005,177.175 C74.056,174.744 88.209,172.034 102.617,167.203 C116.377,162.586 131.249,157.211 145.595,147.109 C161.384,135.984 169.169,126.958 176.725,116.595 C188.262,100.778 195.186,85.450 198.996,74.572 C199.274,73.774 199.462,73.599 199.776,73.630 C199.984,73.650 200.257,73.666 200.296,74.145 C200.371,75.018 199.542,109.405 199.243,112.768 C198.980,115.673 198.521,119.631 196.570,123.988 C189.313,140.208 176.614,154.247 159.798,166.751 C131.004,188.163 100.712,192.332 72.778,192.719 C71.991,192.734 71.460,192.744 70.672,192.488 ZM133.394,273.025 C132.524,273.463 131.936,273.762 130.917,273.895 C129.907,274.029 128.244,273.107 128.244,273.107 C128.244,273.107 110.866,263.985 110.866,263.985 C110.866,263.985 110.176,263.615 110.155,263.293 C110.135,262.863 110.433,262.773 110.781,262.523 C125.169,252.263 139.520,241.638 153.017,228.504 C165.909,215.963 179.630,201.972 190.227,182.989 C201.890,162.086 205.735,147.822 208.611,132.191 C213.000,108.334 212.505,87.500 210.919,73.303 C210.801,72.264 210.917,71.966 211.285,71.832 C211.527,71.744 211.841,71.615 212.139,72.126 C212.691,73.064 230.233,111.910 231.702,115.828 C232.970,119.211 234.585,123.880 234.745,129.796 C235.345,151.806 228.704,174.303 216.636,197.298 C195.975,236.673 164.385,257.594 133.394,273.025 ZM251.857,319.608 C251.196,320.531 250.753,321.164 249.769,321.859 C248.795,322.545 246.575,322.493 246.575,322.493 C246.575,322.493 223.605,322.493 223.605,322.493 C223.605,322.493 222.683,322.482 222.492,322.158 C222.235,321.725 222.494,321.473 222.719,321.024 C232.046,302.563 241.141,283.748 247.984,262.804 C254.523,242.792 261.131,220.838 261.788,195.399 C262.511,167.404 258.737,150.529 253.215,132.767 C244.794,105.665 232.948,84.342 223.584,70.493 C222.896,69.479 222.857,69.108 223.162,68.770 C223.625,68.261 224.321,68.310 224.321,68.310 C224.321,68.310 247.111,68.310 247.111,68.310 C247.111,68.310 249.301,68.310 250.119,68.770 C250.943,69.234 251.562,69.922 251.922,70.426 C276.539,105.156 296.940,144.253 296.940,195.869 C296.940,247.906 275.586,286.761 251.857,319.608 Z" id="path-1" class="cls-2" fill-rule="evenodd"/>
</svg>
